PathFileType	4	(X/Y/Z)	D:\TRACE\v60_Jaco2_6-2-23\BothDRS_Motion1_4-v60.trc
DataRate	CameraRate	NumFrames	NumMarkers	Units	OrigDataRate	OrigDataStartFrame	OrigNumFrames
100.00	100.00	      38	9	mm	100.00	1745	      6979
Frame#	Time	front left toe			Front right toe			aft left toe			aft right toe			Arm			FL body			FR body			AL Body			AR Body			
		X1	Y1	Z1	X2	Y2	Z2	X3	Y3	Z3	X4	Y4	Z4	X5	Y5	Z5	X6	Y6	Z6	X7	Y7	Z7	X8	Y8	Z8	X9	Y9	Z9	

1745	17.440	-139.25853	152.14223	-208.28053	271.46432	28.21150	-279.82166	-4.43645	-1.37948	399.31027	345.36685	127.53774	337.13303	0.54705	1224.42102	-576.33539	-38.62217	587.57642	-365.64276	118.64070	588.01245	-393.63632	126.98346	544.54688	564.53088	281.41913	538.88385	538.10132	
1746	17.450	-142.13815	145.78656	-209.52438	270.64481	28.15660	-279.72415	-5.47624	-1.62424	399.36060	340.82645	120.89125	336.58847	-0.83716	1224.58887	-576.10577	-40.61001	587.08575	-365.52948	116.54280	587.60132	-393.34201	124.46343	544.47888	564.71234	278.85986	539.11481	538.26056	
1747	17.460	-145.21721	139.10216	-211.05475	269.57938	28.19354	-279.72946	-6.50384	-1.80998	399.50839	337.67627	113.97411	336.09296	-2.72555	1224.78247	-576.39734	-42.58300	586.66492	-365.75955	114.62779	587.33789	-393.41211	121.93027	544.45642	564.27466	276.59955	539.43494	538.86755	
1748	17.470	-148.88956	131.31752	-212.95984	268.47049	27.99812	-279.70706	-7.26597	-1.95688	399.43130	332.98993	105.66696	335.03860	-4.48108	1224.56396	-576.36523	-44.48214	586.32458	-365.91214	113.53278	587.52911	-394.45685	119.31897	544.58154	564.22083	274.00058	539.55109	538.68250	
1749	17.480	-153.16948	123.30151	-215.09984	267.51047	27.97209	-279.51230	-8.61879	-1.76884	399.36057	328.87564	96.40140	334.08929	-6.56819	1224.40125	-576.86890	-46.48790	586.07526	-366.44519	111.15523	586.76746	-394.30939	116.66599	544.88153	564.35638	271.02081	539.51007	538.12482	
1750	17.490	-157.51646	114.87965	-217.02559	266.33447	27.90172	-279.59979	-9.58244	-1.65580	399.30215	324.25470	86.45378	333.27426	-8.64466	1223.85144	-577.45264	-48.11945	585.93127	-366.76312	110.15075	586.75421	-394.83957	114.02340	544.88611	564.54590	267.91534	539.30377	537.82690	
1751	17.500	-161.79718	105.97124	-218.73169	265.71585	28.04454	-279.58118	-10.68885	-1.77909	399.25186	319.23523	76.33598	332.39633	-10.54962	1223.13550	-578.41827	-50.19037	585.79877	-367.37567	108.08978	586.46155	-394.93677	111.17974	544.85449	563.89954	265.64014	539.55096	538.15674	
1752	17.510	-165.55612	97.11771	-220.28314	263.80341	27.61793	-279.81189	-11.79902	-1.93324	399.17578	313.70410	66.34747	332.33945	-11.99744	1222.27710	-579.30981	-51.74689	585.37598	-367.55481	106.94234	586.26801	-395.44095	108.53167	545.02368	563.15271	262.66760	538.97870	537.65771	
1753	17.520	-168.85735	88.64368	-221.49139	262.21509	27.32836	-280.07559	-12.58580	-1.95632	398.95615	307.34204	55.99918	331.85165	-13.54289	1221.61731	-580.49023	-53.77300	585.42389	-368.16455	104.21946	585.88501	-396.06500	105.76388	545.26349	562.86169	260.09650	539.48315	537.46045	
1754	17.530	-171.71153	80.21046	-222.48997	262.85757	27.79163	-279.65057	-13.68832	-1.94844	399.00552	302.70206	47.51678	331.61688	-14.83585	1221.24133	-581.77167	-56.28319	585.18152	-369.06607	101.67268	585.37457	-396.19116	102.91676	545.60504	562.95471	257.33136	539.66260	537.08386	
1755	17.540	-174.43602	71.83593	-223.22723	261.91232	27.69870	-279.54355	-14.65457	-1.74568	398.88086	298.50555	39.16394	331.20068	-15.50648	1220.89160	-582.83667	-58.00311	585.03912	-369.64343	99.83726	584.93036	-396.68625	99.72861	545.85870	561.99280	254.72769	540.00897	536.91809	
1756	17.550	-176.73430	64.20524	-223.83174	260.89413	27.57712	-279.81842	-15.65487	-1.86933	398.83368	295.16174	31.59456	331.10501	-16.47647	1220.74268	-583.95166	-59.93029	584.39288	-370.44119	97.32619	584.26855	-397.13348	96.92404	546.29224	561.44128	251.28979	539.91473	536.09827	
1757	17.560	-178.91556	57.04056	-223.90652	260.18948	27.52345	-279.75797	-16.62272	-1.85373	398.69290	292.57693	24.98303	331.14383	-17.10336	1220.35999	-585.19849	-62.24107	584.24170	-371.38168	95.72837	583.75134	-398.22827	93.81597	546.53381	560.77307	248.17155	539.93079	535.78168	
1758	17.570	-181.47749	50.35572	-224.30591	259.36325	27.59605	-279.66138	-17.57329	-1.97745	398.42175	289.93137	18.96611	331.19711	-17.49440	1220.10156	-586.39404	-64.52486	584.10529	-372.41452	93.97984	583.48303	-399.27039	90.58320	546.76154	559.93866	245.18309	540.19037	535.42963	
1759	17.580	-184.85486	44.08120	-225.03136	258.31165	27.54986	-279.84338	-18.46574	-1.87503	398.41577	287.19897	13.03002	331.17340	-18.32427	1219.84143	-588.06079	-66.69486	583.68329	-373.28696	91.60634	583.07471	-400.12094	87.51353	547.17700	559.77582	241.97050	540.34973	534.40344	
1760	17.590	-188.32841	37.67634	-226.00528	257.52148	27.47528	-279.98901	-19.50181	-1.54565	398.32074	284.21863	7.29772	330.30618	-19.52191	1219.54517	-589.51324	-69.75374	584.12146	-373.83694	89.24937	582.66284	-400.34396	84.16451	547.78296	558.34589	238.81703	540.78485	534.25732	
1761	17.600	-191.14909	31.04066	-226.84480	256.87698	27.48233	-279.88013	-20.33050	-1.59666	398.15945	284.20013	8.11020	327.80270	-20.64774	1218.93250	-591.08936	-70.73798	583.48334	-374.92215	88.13803	582.44977	-401.76929	81.01928	548.49762	558.12366	235.82988	541.19354	533.28381	
1762	17.610	-193.17670	30.92853	-229.00801	255.86986	27.26051	-279.81311	-21.02328	-1.39761	398.00201	283.57535	6.08823	328.72913	-22.00413	1218.14990	-592.78937	-72.50734	582.64307	-376.22604	84.87361	581.39337	-401.56534	77.33193	549.61835	556.59436	231.40564	542.53583	532.74066	
1763	17.620	-193.48380	27.11774	-228.20605	254.95499	27.19481	-279.74011	-22.12243	-0.87913	397.89880	283.39175	8.18447	328.49304	-23.93527	1217.47363	-595.02466	-75.21306	583.10925	-376.86240	82.88539	581.45398	-402.60962	73.95257	551.20844	556.33893	228.43282	544.06866	532.49707	
1764	17.630	-193.75432	28.40688	-228.57986	253.80602	28.57773	-280.38684	-22.63962	-0.68878	397.79477	281.25436	8.31085	329.22546	-25.81476	1217.06665	-597.35242	-77.72923	584.34430	-377.62711	81.46185	582.31177	-404.10580	70.70773	552.53516	556.38116	224.83727	545.09509	532.03687	
1765	17.640	-194.23227	26.74325	-228.61198	249.69762	31.88076	-279.70523	-24.99690	2.76924	396.67181	280.07385	7.51396	330.96246	-28.22608	1216.40759	-599.72113	-79.45435	585.57892	-378.62109	79.31736	583.53223	-404.15375	66.81712	552.70654	554.99377	221.64473	545.47644	531.79095	
1766	17.650	-195.35692	27.46086	-228.50269	243.40073	35.77382	-276.78369	-24.43106	6.31657	398.07639	279.33032	7.50464	328.84134	-29.90451	1216.05579	-600.72217	-82.01567	586.73010	-379.51218	76.95734	584.65997	-404.95111	63.45179	552.65924	554.12921	218.43578	545.37738	530.83038	
1767	17.660	-196.31537	26.61002	-229.49042	238.45372	43.43525	-274.29483	-23.22131	15.21128	397.90424	278.74033	7.85763	329.41110	-31.57381	1216.95496	-600.95862	-83.98800	587.05487	-380.86456	74.80398	585.10034	-406.37946	60.61457	552.86456	553.03259	215.87325	546.16248	530.21405	
1768	17.670	-197.69217	26.23220	-229.04355	234.73303	52.89907	-274.02701	-23.71139	25.14539	396.24844	277.55954	8.10308	329.26532	-33.23724	1218.65381	-600.60272	-86.70454	587.15503	-381.97189	73.14180	585.09613	-407.30353	57.85749	553.10986	551.98584	213.20789	546.52887	529.52509	
1769	17.680	-198.49290	25.64754	-229.35715	232.24318	65.15450	-275.97888	-25.80744	36.89355	394.03052	276.69305	8.23356	329.13577	-35.28728	1220.98877	-600.72595	-89.11929	586.43073	-383.01688	70.44697	584.73273	-407.89108	55.86841	553.15887	550.92517	210.05298	546.34741	528.27698	
1770	17.690	-199.11882	25.41996	-229.03450	230.64499	78.79216	-279.26184	-30.58504	49.13819	391.68146	276.26633	8.24665	329.12067	-37.22836	1222.74609	-600.42303	-90.68313	585.91461	-383.98157	68.06465	584.84167	-409.09030	53.51762	552.56116	550.25629	208.58530	546.67212	527.83923	
1771	17.700	-200.32921	25.25017	-229.00067	228.44725	92.53523	-282.76028	-37.53411	61.60948	388.68860	275.89798	8.24885	328.78470	-39.58123	1223.32727	-600.34412	-93.07530	586.14783	-384.65204	65.39901	585.23859	-409.73859	51.59301	551.58130	549.25165	206.56975	545.36829	526.29773	
1772	17.710	-201.17940	24.98477	-229.08862	225.29535	106.21996	-286.69650	-44.82327	73.65578	385.37140	275.58142	8.31512	328.71957	-42.71492	1222.99841	-600.42871	-95.35120	586.59564	-385.29468	63.29456	585.62329	-410.81061	50.03940	550.55109	548.30035	205.35544	544.34882	525.73877	
1773	17.720	-201.67238	24.65251	-229.22716	221.14621	119.28862	-290.48550	-52.00636	84.69670	381.72781	275.28104	8.39752	328.59143	-46.14367	1222.37500	-600.71857	-97.38148	586.82532	-386.11197	60.73281	586.01624	-411.01370	48.47585	549.10699	547.81439	203.16266	543.21844	525.18237	
1774	17.730	-202.59027	24.23712	-229.39937	215.90480	131.52647	-294.26743	-58.90886	96.55219	377.81070	274.75427	8.66556	328.59290	-50.15873	1222.13928	-601.11279	-99.47489	587.36627	-387.00931	59.49168	586.80878	-412.29834	46.60934	548.04907	546.46735	201.31595	542.47253	524.19153	
1775	17.740	-203.71263	24.33152	-229.47546	210.47733	142.91151	-297.53729	-64.38634	107.37728	373.94135	273.90857	8.65817	328.16888	-54.28138	1222.00317	-601.15442	-100.84431	587.45325	-387.52570	57.55691	587.12878	-412.80853	44.92040	547.35339	546.53662	200.18559	541.66876	523.53717	
1776	17.750	-204.30173	24.26715	-229.69536	206.04546	153.39235	-300.42651	-69.16467	117.65951	370.49908	273.20554	8.84662	328.12378	-58.14523	1222.14319	-600.75543	-102.73495	587.24707	-388.39139	55.64497	586.96338	-413.18771	42.41201	546.76068	545.93280	198.16295	541.92859	523.96350	
1777	17.760	-204.93649	23.74276	-229.84689	202.27629	160.44191	-301.73007	-74.17941	125.58778	368.17075	272.90451	8.94079	328.06934	-61.42466	1222.70605	-600.34485	-104.29341	586.90753	-389.09540	54.46302	586.91193	-413.94031	39.89893	546.33167	544.83716	196.47882	541.36591	522.46094	
1778	17.770	-205.63541	23.17382	-229.81993	199.52324	164.26831	-302.08832	-79.85657	130.54047	367.39944	272.53613	9.14540	328.20801	-63.88597	1223.19177	-599.95367	-105.55330	586.05713	-389.54974	53.23639	586.81561	-414.50418	37.83403	546.04181	544.25128	193.08215	541.32855	521.48285	
1779	17.780	-206.16641	23.05709	-229.83286	197.22090	166.16498	-301.95856	-86.71661	132.68271	366.61438	272.00748	9.54800	328.21500	-65.91853	1223.82544	-600.34601	-107.23050	585.66919	-390.12271	51.82854	586.70837	-414.77118	36.10326	545.84485	544.43561	190.53870	541.42181	521.10980	
1780	17.790	-207.02069	22.88360	-229.80663	195.00346	164.91872	-301.53354	-93.47373	131.79436	366.43448	271.37506	9.71828	327.96524	-67.17639	1223.63403	-600.61853	-107.97235	585.32654	-390.40833	49.96778	586.48273	-414.77921	33.74128	545.68018	544.09387	188.89363	541.60480	521.02905	
1781	17.800	-207.56929	22.92230	-230.15871	192.82417	161.87225	-300.60992	-100.86964	128.95422	367.01410	271.00223	9.88578	327.86441	-68.73642	1223.18665	-601.07654	-109.19239	585.50745	-390.51862	48.90051	586.84113	-414.89151	31.61133	545.59393	544.17883	186.02696	541.64404	520.90021	
1782	17.810	-208.00052	22.80645	-230.29901	189.76787	157.29683	-299.62491	-107.63234	125.56773	367.28683	270.75940	10.20378	327.87512	-70.45740	1222.33179	-601.94635	-110.25829	585.63275	-391.12091	48.34506	587.08917	-414.70663	28.58177	545.51892	543.54419	183.40060	541.46008	521.00800	
